<svg width="58" height="58" viewBox="0 0 58 58" fill="none" xmlns="http://www.w3.org/2000/svg">
<path d="M54.375 6.18788L51.8121 3.625L3.625 51.8121L6.18788 54.375L9.81288 50.75H47.125C48.086 50.7486 49.0072 50.3662 49.6867 49.6867C50.3662 49.0072 50.7486 48.086 50.75 47.125V9.81288L54.375 6.18788ZM47.125 47.125H13.4379L27.5627 33.0002L31.8746 37.3121C32.5544 37.9917 33.4763 38.3735 34.4375 38.3735C35.3987 38.3735 36.3206 37.9917 37.0004 37.3121L39.875 34.4375L47.125 41.6821V47.125ZM47.125 36.5545L42.4379 31.8674C41.7581 31.1878 40.8362 30.806 39.875 30.806C38.9138 30.806 37.9919 31.1878 37.3121 31.8674L34.4375 34.742L30.1292 30.4337L47.125 13.4379V36.5545Z" fill="#FEFEFE"/>
<path d="M10.875 39.875V34.4375L19.9375 25.3804L22.4261 27.8708L24.9926 25.3043L22.5004 22.8121C21.8206 22.1325 20.8987 21.7508 19.9375 21.7508C18.9763 21.7508 18.0544 22.1325 17.3746 22.8121L10.875 29.3118V10.875H39.875V7.25H10.875C9.91388 7.25096 8.99241 7.63319 8.3128 8.3128C7.63319 8.99241 7.25096 9.91388 7.25 10.875V39.875H10.875Z" fill="#FEFEFE"/>
</svg>
