<svg width="313" height="171" viewBox="0 0 313 171" fill="none" xmlns="http://www.w3.org/2000/svg">
<rect width="313" height="171" rx="8" fill="#D4D4D4"/>
<path d="M181.375 48.1879L178.812 45.625L130.625 93.8121L133.188 96.375L136.813 92.75H174.125C175.086 92.7486 176.007 92.3662 176.687 91.6867C177.366 91.0072 177.749 90.086 177.75 89.125V51.8129L181.375 48.1879ZM174.125 89.125H140.438L154.563 75.0002L158.875 79.3121C159.554 79.9917 160.476 80.3735 161.438 80.3735C162.399 80.3735 163.321 79.9917 164 79.3121L166.875 76.4375L174.125 83.6821V89.125ZM174.125 78.5545L169.438 73.8674C168.758 73.1878 167.836 72.806 166.875 72.806C165.914 72.806 164.992 73.1878 164.312 73.8674L161.438 76.742L157.129 72.4337L174.125 55.4379V78.5545Z" fill="#FEFEFE"/>
<path d="M137.875 81.875V76.4375L146.938 67.3804L149.426 69.8708L151.993 67.3043L149.5 64.8121C148.821 64.1325 147.899 63.7508 146.938 63.7508C145.976 63.7508 145.054 64.1325 144.375 64.8121L137.875 71.3118V52.875H166.875V49.25H137.875C136.914 49.251 135.992 49.6332 135.313 50.3128C134.633 50.9924 134.251 51.9139 134.25 52.875V81.875H137.875Z" fill="#FEFEFE"/>
<path d="M121.019 125H117.563L111.965 115.28H111.893C111.917 115.892 111.941 116.504 111.965 117.116C112.001 117.728 112.031 118.34 112.055 118.952V125H109.625V112.148H113.063L118.643 121.778H118.697C118.685 121.178 118.667 120.584 118.643 119.996C118.619 119.408 118.595 118.82 118.571 118.232V112.148H121.019V125ZM133.52 120.068C133.52 121.7 133.088 122.96 132.224 123.848C131.372 124.736 130.208 125.18 128.732 125.18C127.82 125.18 127.004 124.982 126.284 124.586C125.576 124.19 125.018 123.614 124.61 122.858C124.202 122.09 123.998 121.16 123.998 120.068C123.998 118.436 124.424 117.182 125.276 116.306C126.128 115.43 127.298 114.992 128.786 114.992C129.71 114.992 130.526 115.19 131.234 115.586C131.942 115.982 132.5 116.558 132.908 117.314C133.316 118.058 133.52 118.976 133.52 120.068ZM126.734 120.068C126.734 121.04 126.89 121.778 127.202 122.282C127.526 122.774 128.048 123.02 128.768 123.02C129.476 123.02 129.986 122.774 130.298 122.282C130.622 121.778 130.784 121.04 130.784 120.068C130.784 119.096 130.622 118.37 130.298 117.89C129.986 117.398 129.47 117.152 128.75 117.152C128.042 117.152 127.526 117.398 127.202 117.89C126.89 118.37 126.734 119.096 126.734 120.068ZM142.842 111.32C143.238 111.32 143.58 111.416 143.868 111.608C144.156 111.788 144.3 112.13 144.3 112.634C144.3 113.126 144.156 113.468 143.868 113.66C143.58 113.852 143.238 113.948 142.842 113.948C142.434 113.948 142.086 113.852 141.798 113.66C141.522 113.468 141.384 113.126 141.384 112.634C141.384 112.13 141.522 111.788 141.798 111.608C142.086 111.416 142.434 111.32 142.842 111.32ZM144.174 115.172V125H141.492V115.172H144.174ZM159.054 114.992C160.17 114.992 161.01 115.28 161.574 115.856C162.15 116.42 162.438 117.332 162.438 118.592V125H159.756V119.258C159.756 117.842 159.264 117.134 158.28 117.134C157.572 117.134 157.068 117.386 156.768 117.89C156.468 118.394 156.318 119.12 156.318 120.068V125H153.636V119.258C153.636 117.842 153.144 117.134 152.16 117.134C151.416 117.134 150.9 117.416 150.612 117.98C150.336 118.532 150.198 119.33 150.198 120.374V125H147.516V115.172H149.568L149.928 116.432H150.072C150.372 115.928 150.78 115.562 151.296 115.334C151.824 115.106 152.37 114.992 152.934 114.992C153.654 114.992 154.266 115.112 154.77 115.352C155.274 115.58 155.658 115.94 155.922 116.432H156.156C156.456 115.928 156.87 115.562 157.398 115.334C157.938 115.106 158.49 114.992 159.054 114.992ZM169.772 114.974C171.092 114.974 172.1 115.262 172.796 115.838C173.504 116.402 173.858 117.272 173.858 118.448V125H171.986L171.464 123.668H171.392C170.972 124.196 170.528 124.58 170.06 124.82C169.592 125.06 168.95 125.18 168.134 125.18C167.258 125.18 166.532 124.928 165.956 124.424C165.38 123.908 165.092 123.122 165.092 122.066C165.092 121.022 165.458 120.254 166.19 119.762C166.922 119.258 168.02 118.982 169.484 118.934L171.194 118.88V118.448C171.194 117.932 171.056 117.554 170.78 117.314C170.516 117.074 170.144 116.954 169.664 116.954C169.184 116.954 168.716 117.026 168.26 117.17C167.804 117.302 167.348 117.47 166.892 117.674L166.01 115.856C166.538 115.58 167.12 115.364 167.756 115.208C168.404 115.052 169.076 114.974 169.772 114.974ZM170.15 120.482C169.286 120.506 168.686 120.662 168.35 120.95C168.014 121.238 167.846 121.616 167.846 122.084C167.846 122.492 167.966 122.786 168.206 122.966C168.446 123.134 168.758 123.218 169.142 123.218C169.718 123.218 170.204 123.05 170.6 122.714C170.996 122.366 171.194 121.88 171.194 121.256V120.446L170.15 120.482ZM180.329 114.992C181.541 114.992 182.489 115.472 183.173 116.432H183.245L183.461 115.172H185.729V125.018C185.729 126.422 185.315 127.49 184.487 128.222C183.659 128.954 182.435 129.32 180.815 129.32C180.119 129.32 179.471 129.278 178.871 129.194C178.283 129.11 177.707 128.96 177.143 128.744V126.602C178.355 127.106 179.633 127.358 180.977 127.358C182.357 127.358 183.047 126.614 183.047 125.126V124.928C183.047 124.724 183.053 124.514 183.065 124.298C183.089 124.082 183.107 123.89 183.119 123.722H183.047C182.711 124.238 182.309 124.61 181.841 124.838C181.373 125.066 180.845 125.18 180.257 125.18C179.093 125.18 178.181 124.736 177.521 123.848C176.873 122.948 176.549 121.7 176.549 120.104C176.549 118.496 176.885 117.242 177.557 116.342C178.229 115.442 179.153 114.992 180.329 114.992ZM181.175 117.17C179.915 117.17 179.285 118.16 179.285 120.14C179.285 122.096 179.927 123.074 181.211 123.074C181.895 123.074 182.399 122.882 182.723 122.498C183.059 122.102 183.227 121.418 183.227 120.446V120.122C183.227 119.066 183.065 118.31 182.741 117.854C182.417 117.398 181.895 117.17 181.175 117.17ZM193.124 114.992C194.48 114.992 195.554 115.382 196.346 116.162C197.138 116.93 197.534 118.028 197.534 119.456V120.752H191.198C191.222 121.508 191.444 122.102 191.864 122.534C192.296 122.966 192.89 123.182 193.646 123.182C194.282 123.182 194.858 123.122 195.374 123.002C195.89 122.87 196.424 122.672 196.976 122.408V124.478C196.496 124.718 195.986 124.892 195.446 125C194.918 125.12 194.276 125.18 193.52 125.18C192.536 125.18 191.666 125 190.91 124.64C190.154 124.268 189.56 123.71 189.128 122.966C188.696 122.222 188.48 121.286 188.48 120.158C188.48 119.006 188.672 118.052 189.056 117.296C189.452 116.528 189.998 115.952 190.694 115.568C191.39 115.184 192.2 114.992 193.124 114.992ZM193.142 116.9C192.626 116.9 192.194 117.068 191.846 117.404C191.51 117.74 191.312 118.262 191.252 118.97H195.014C195.002 118.37 194.846 117.878 194.546 117.494C194.246 117.098 193.778 116.9 193.142 116.9ZM202.499 120.734H200.357L199.907 112.148H202.949L202.499 120.734ZM199.871 123.74C199.871 123.188 200.021 122.804 200.321 122.588C200.621 122.36 200.987 122.246 201.419 122.246C201.839 122.246 202.199 122.36 202.499 122.588C202.799 122.804 202.949 123.188 202.949 123.74C202.949 124.268 202.799 124.652 202.499 124.892C202.199 125.12 201.839 125.234 201.419 125.234C200.987 125.234 200.621 125.12 200.321 124.892C200.021 124.652 199.871 124.268 199.871 123.74Z" fill="#FEFEFE"/>
</svg>
