<svg width="52" height="52" viewBox="0 0 52 52" fill="none" xmlns="http://www.w3.org/2000/svg">
<path d="M51.375 3.18788L48.8121 0.625L0.625 48.8121L3.18788 51.375L6.81288 47.75H44.125C45.086 47.7486 46.0072 47.3662 46.6867 46.6867C47.3662 46.0072 47.7486 45.086 47.75 44.125V6.81288L51.375 3.18788ZM44.125 44.125H10.4379L24.5627 30.0002L28.8746 34.3121C29.5544 34.9917 30.4763 35.3735 31.4375 35.3735C32.3987 35.3735 33.3206 34.9917 34.0004 34.3121L36.875 31.4375L44.125 38.6821V44.125ZM44.125 33.5545L39.4379 28.8674C38.7581 28.1878 37.8362 27.806 36.875 27.806C35.9138 27.806 34.9919 28.1878 34.3121 28.8674L31.4375 31.742L27.1292 27.4337L44.125 10.4379V33.5545Z" fill="#FEFEFE"/>
</svg>
