<svg width="133" height="22" viewBox="0 0 133 22" fill="none" xmlns="http://www.w3.org/2000/svg">
<path d="M2.016 0C1.248 0 0.72 0.144001 0.432 0.456001C0.144 0.768002 0 1.344 0 2.208V4.416C0 5.16 0.144 5.688 0.432 6C0.72 6.312 1.248 6.456 2.016 6.456H6.624V19.56C6.648 20.208 6.816 20.664 7.128 20.976C7.44 21.288 7.968 21.432 8.712 21.408H11.256C12 21.384 12.528 21.24 12.816 20.952C13.128 20.664 13.272 20.208 13.248 19.56V6.456H17.472C18.216 6.456 18.744 6.312 19.056 6C19.344 5.688 19.488 5.16 19.488 4.416V2.016C19.488 1.296 19.344 0.768002 19.056 0.456001C18.744 0.144001 18.216 0 17.472 0H2.016Z" fill="#FEFEFE"/>
<path d="M28.7906 12.936V8.496C28.7906 7.392 28.9826 6.672 29.3426 6.264C29.7026 5.88 30.4226 5.688 31.4546 5.688H32.9186C33.9506 5.688 34.6466 5.88 35.0066 6.264C35.3906 6.672 35.5586 7.392 35.5586 8.496V12.936C35.5586 14.016 35.3906 14.736 35.0066 15.12C34.6466 15.528 33.9506 15.72 32.9186 15.72H31.4546C30.4226 15.72 29.7026 15.528 29.3426 15.12C28.9826 14.736 28.7906 14.016 28.7906 12.936ZM31.1426 21.384H33.2306C36.2786 21.36 38.5106 20.76 39.8786 19.632C41.2466 18.48 41.9426 16.392 41.9426 13.32V8.16C41.9426 5.064 41.2466 2.952 39.8786 1.776C38.5106 0.6 36.2786 0 33.2306 0H31.1426C28.0706 0 25.8626 0.6 24.4706 1.776C23.1026 2.952 22.4306 5.064 22.4306 8.16V13.32C22.4306 16.392 23.1026 18.48 24.4706 19.632C25.8626 20.76 28.0706 21.36 31.1426 21.384Z" fill="#FEFEFE"/>
<path d="M57.9653 12.168C57.9653 13.248 57.7972 13.968 57.4613 14.352C57.1253 14.712 56.5252 14.928 55.6613 14.976H53.5493C52.6853 14.928 52.0853 14.712 51.7493 14.352C51.3893 13.968 51.2213 13.248 51.2213 12.168V2.04C51.2453 1.296 51.1012 0.792 50.7892 0.504C50.4772 0.191999 49.9733 0.0479999 49.2293 0.0240002H47.1173C46.2533 0.0240002 45.6772 0.167999 45.3652 0.48C45.0293 0.768 44.8613 1.296 44.8613 2.04V13.32C44.8613 16.224 45.5573 18.312 46.9253 19.536C48.3172 20.76 50.5492 21.384 53.5732 21.384H55.6373C58.6613 21.384 60.8693 20.76 62.2612 19.536C63.6533 18.312 64.3493 16.224 64.3493 13.32V2.04C64.3252 1.296 64.1572 0.768 63.8453 0.48C63.5333 0.167999 62.9333 0.0240002 62.0693 0.0240002H59.9573C59.2373 0.0479999 58.7093 0.191999 58.3973 0.504C58.1093 0.792 57.9653 1.296 57.9653 2.04V12.168Z" fill="#FEFEFE"/>
<path d="M74.0839 14.616H76.9639L79.9879 19.512C80.4439 20.184 80.8279 20.664 81.1399 20.976C81.4759 21.288 82.0039 21.432 82.7239 21.408H84.7399C85.4839 21.384 85.9879 21.24 86.2999 20.952C86.6119 20.664 86.7559 20.208 86.7319 19.56C86.7319 19.032 86.5399 18.504 86.1799 18L83.3959 13.512C83.8519 13.296 84.2359 13.032 84.5719 12.744C86.0119 11.496 86.7319 9.672 86.7319 7.32C86.7319 4.944 86.0119 3.144 84.5719 1.896C83.1319 0.648 80.6839 0.0240002 77.2039 0.0240002H69.6679C68.8279 0.0240002 68.2039 0.240001 67.8199 0.624001C67.4359 1.032 67.2439 1.608 67.2439 2.376V19.56C67.2439 20.208 67.4119 20.664 67.7479 20.976C68.0599 21.288 68.5879 21.432 69.3319 21.408H71.6119C72.3559 21.384 72.8599 21.24 73.1719 20.952C73.4839 20.664 73.6279 20.208 73.6039 19.56V15.072C73.6039 14.976 73.6519 14.856 73.7239 14.76C73.7959 14.664 73.9159 14.616 74.0839 14.616ZM79.9879 7.32C79.9879 7.92 79.7719 8.328 79.3399 8.568C78.9319 8.832 78.2359 8.952 77.2999 8.952H74.0839C73.9159 8.952 73.7959 8.88 73.7239 8.784C73.6519 8.688 73.6039 8.592 73.6039 8.472V6.192C73.6039 6.096 73.6519 5.976 73.7239 5.88C73.7959 5.76 73.9159 5.712 74.0839 5.712H77.2999C78.2359 5.712 78.9319 5.832 79.3399 6.048C79.7719 6.288 79.9879 6.72 79.9879 7.32Z" fill="#FEFEFE"/>
<path d="M96.1305 6.672C96.1065 5.928 95.9385 5.4 95.6265 5.088C95.3145 4.776 94.7145 4.632 93.8505 4.656H91.7625C91.0185 4.68 90.4905 4.824 90.2025 5.112C89.8905 5.4 89.7465 5.928 89.7705 6.672V19.584C89.7705 20.232 89.9385 20.688 90.2745 21C90.5865 21.312 91.1145 21.456 91.8345 21.432H94.1385C94.8825 21.408 95.3865 21.264 95.6985 20.976C96.0105 20.688 96.1545 20.232 96.1305 19.584V6.672ZM96.1305 1.704C96.1065 1.08 95.9385 0.648 95.6265 0.407999C95.3145 0.167999 94.7145 0.0480003 93.8505 0.0480003H91.7625C91.0185 0.072 90.4905 0.192 90.2025 0.432001C89.8905 0.648001 89.7465 1.08 89.7705 1.704V1.776C89.7705 2.4 89.9385 2.856 90.2745 3.096C90.5865 3.336 91.1145 3.456 91.8345 3.432H94.1385C94.8825 3.408 95.3865 3.288 95.6985 3.072C96.0105 2.856 96.1545 2.4 96.1305 1.776V1.704Z" fill="#FEFEFE"/>
<path d="M105.698 10.032V9.912C105.698 9.6 105.794 9.36 105.986 9.24C106.178 9.12 106.49 9.048 106.922 9.048H113.978C114.698 9.072 115.178 8.928 115.466 8.616C115.754 8.328 115.898 7.8 115.946 7.056V6.888C115.946 6.048 115.802 5.496 115.514 5.184C115.202 4.872 114.698 4.728 113.978 4.728H104.186C102.554 4.752 101.306 5.136 100.442 5.856C99.5779 6.576 99.1699 7.848 99.1699 9.672V10.392C99.1699 12.216 99.5779 13.488 100.442 14.208C101.306 14.928 102.554 15.288 104.186 15.288H108.17C108.602 15.288 108.914 15.36 109.106 15.48C109.298 15.6 109.394 15.816 109.394 16.128V16.272C109.394 16.584 109.298 16.8 109.106 16.944C108.914 17.064 108.602 17.112 108.17 17.112H101.138C100.418 17.112 99.9139 17.256 99.6259 17.544C99.3379 17.856 99.1939 18.384 99.1699 19.104V19.296C99.1459 20.136 99.2899 20.688 99.6019 21C99.8899 21.312 100.418 21.456 101.138 21.456H110.906C112.538 21.432 113.786 21.048 114.65 20.328C115.514 19.608 115.946 18.336 115.946 16.512V15.792C115.946 13.968 115.514 12.672 114.65 11.976C113.786 11.256 112.538 10.896 110.906 10.896H106.922C106.49 10.896 106.178 10.824 105.986 10.704C105.794 10.584 105.698 10.344 105.698 10.032Z" fill="#FEFEFE"/>
<path d="M130.904 10.296C131.648 10.296 132.176 10.152 132.464 9.84C132.751 9.528 132.92 9 132.92 8.256V6.672C132.92 5.928 132.751 5.4 132.464 5.088C132.176 4.776 131.648 4.632 130.904 4.632H128.984V3.384C129.008 2.736 128.863 2.28 128.551 1.992C128.264 1.704 127.735 1.56 126.991 1.536H124.711C123.967 1.512 123.439 1.656 123.127 1.968C122.815 2.28 122.647 2.736 122.623 3.384V4.632H120.967C120.2 4.632 119.672 4.776 119.383 5.088C119.095 5.4 118.951 5.928 118.951 6.672V8.064C118.951 8.928 119.095 9.528 119.383 9.84C119.672 10.152 120.2 10.296 120.967 10.296H122.623V13.608C122.623 16.488 123.296 18.48 124.688 19.632C126.056 20.76 128.024 21.36 130.592 21.384H131C131.648 21.408 132.128 21.264 132.416 20.952C132.704 20.64 132.872 20.136 132.92 19.392V17.808C132.944 17.064 132.799 16.536 132.488 16.224C132.176 15.888 131.672 15.72 131 15.72H130.904C130.232 15.72 129.751 15.528 129.464 15.168C129.152 14.808 128.984 14.232 128.984 13.488V10.296H130.904Z" fill="#FEFEFE"/>
</svg>
