<svg width="48" height="48" viewBox="0 0 48 48" fill="none" xmlns="http://www.w3.org/2000/svg">
<path d="M24 4C15.178 4 7.99998 11.178 7.99998 19.99C7.94198 32.88 23.392 43.568 24 44C24 44 40.058 32.88 40 20C40 11.178 32.822 4 24 4ZM24 28C19.58 28 16 24.42 16 20C16 15.58 19.58 12 24 12C28.42 12 32 15.58 32 20C32 24.42 28.42 28 24 28Z" fill="#28DAA5"/>
<circle cx="24" cy="20" r="11" fill="#FEFEFE"/>
<g clip-path="url(#clip0_35_440)">
<path d="M20.5854 14.0131C20.6535 14.0029 20.7217 13.9969 20.7897 13.993C21.1061 13.9749 21.4144 14.007 21.7047 14.0831L21.7548 13.8808C21.7608 13.8588 21.7889 13.8568 21.7989 13.8769C21.8248 13.9449 21.8689 14.053 21.907 14.1451C22.1596 14.23 22.3964 14.3502 22.6121 14.4994C22.6141 14.5008 22.6161 14.502 22.618 14.5032H22.6181C22.6193 14.5041 22.6206 14.5047 22.6218 14.5056L22.732 14.3275C22.7419 14.3074 22.7719 14.3133 22.774 14.3354C22.778 14.4115 22.788 14.5356 22.798 14.6357C22.9646 14.7727 23.1155 14.9286 23.2499 15.0982C23.2596 15.111 23.2718 15.1225 23.2812 15.1354L23.2816 15.1349C23.2826 15.1361 23.2837 15.1371 23.2845 15.1382L23.4107 14.9922C23.4179 14.985 23.4271 14.9844 23.435 14.9865L23.4433 14.9957C23.4464 14.9996 23.4514 15.002 23.4507 15.0082C23.4428 15.0923 23.4288 15.2305 23.4228 15.3346C23.5989 15.6109 23.7311 15.9193 23.8052 16.2517C23.8165 16.2003 23.8301 16.1491 23.8438 16.098C23.8545 16.0578 23.8662 16.018 23.8784 15.9782C23.9073 15.8841 23.9399 15.7911 23.977 15.6993C23.9924 15.6611 24.0085 15.6234 24.0253 15.5859C24.0455 15.5406 24.0654 15.4952 24.0876 15.4508C24.2017 15.2244 24.3358 15.0142 24.494 14.822C24.2737 13.7288 23.2846 12.9378 22.1494 13.0038C21.4766 13.0439 20.8899 13.3783 20.5054 13.8749C20.4593 13.9349 20.5093 14.023 20.5854 14.0131Z" fill="#28DAA5"/>
<path d="M29.6059 16.1834C29.686 16.2255 29.7661 16.2674 29.8443 16.3136C29.8641 16.3256 29.8842 16.3296 29.9023 16.3296C29.9723 16.3296 30.0325 16.2655 30.0124 16.1894C29.8041 15.3825 29.2656 14.6717 28.4665 14.2712C28.0422 14.0569 27.5896 13.9568 27.143 13.9568C26.0958 13.9568 25.0826 14.5095 24.5301 15.4746C24.5 15.5247 24.472 15.5768 24.446 15.6287C24.2978 15.9272 24.2017 16.2355 24.1577 16.5478L24.1556 16.5499C24.1457 16.5659 24.1357 16.5819 24.1236 16.5959C24.0675 16.5678 24.0015 16.5699 23.9494 16.5978C23.9418 16.6011 23.9382 16.6088 23.9315 16.6131C23.9144 16.623 23.8978 16.6336 23.8786 16.6434C23.8739 16.6322 23.8694 16.6206 23.8633 16.6099V16.608C23.8353 16.5478 23.8072 16.4878 23.7732 16.4297V16.4278C23.6911 16.2756 23.593 16.1274 23.4789 15.9891C22.5198 14.8238 20.8077 14.6477 19.6545 15.5967C19.0297 16.1093 18.6953 16.8482 18.6733 17.6032C18.6716 17.6791 18.7486 17.7207 18.8128 17.6961C18.8135 17.6959 18.8141 17.6954 18.8149 17.6951C18.8261 17.6905 18.8378 17.6884 18.8475 17.6792C18.9077 17.6211 18.9697 17.567 19.0318 17.5149C19.326 17.2727 19.6485 17.0865 19.9848 16.9563L19.8907 16.7241C19.8807 16.7001 19.9066 16.6781 19.9288 16.692C20.0028 16.7381 20.121 16.8122 20.223 16.8722C20.5278 16.7779 20.8419 16.7285 21.1545 16.721C21.159 16.721 21.1634 16.7205 21.1679 16.7205V16.7203C21.1693 16.7202 21.1708 16.7201 21.1722 16.7201L21.1502 16.4677C21.1481 16.4418 21.1803 16.4278 21.1982 16.4477C21.2563 16.5178 21.3523 16.63 21.4345 16.7221C21.6949 16.7352 21.955 16.7793 22.2073 16.8504C22.2231 16.8551 22.2393 16.8588 22.255 16.8638L22.2551 16.8631C22.2565 16.8635 22.258 16.8638 22.2594 16.8642L22.2815 16.6339C22.2834 16.608 22.3175 16.6 22.3295 16.6219C22.3816 16.7081 22.4657 16.8523 22.5338 16.9583C23.0143 17.1485 23.4608 17.4429 23.8312 17.8454V17.8474C23.8243 17.9932 23.8159 18.1473 23.8072 18.3105L23.8005 18.388C23.2146 17.8804 22.4575 17.559 21.6197 17.5308C21.3434 17.5217 21.0747 17.5478 20.815 17.5991C20.8071 17.6007 20.7995 17.6027 20.7916 17.6042C20.692 17.6246 20.594 17.6482 20.4976 17.6767C20.473 17.684 20.4492 17.6928 20.4247 17.7006C20.3465 17.7257 20.269 17.7516 20.1932 17.7819C20.1501 17.7989 20.1084 17.8187 20.0661 17.8374C20.0106 17.8622 19.9548 17.8864 19.9008 17.914C19.8414 17.944 19.7844 17.9774 19.7271 18.0107C19.6917 18.0315 19.6555 18.0508 19.6208 18.0727C19.5506 18.1169 19.4832 18.1649 19.4164 18.2138C19.3959 18.229 19.3746 18.2428 19.3543 18.2585C19.2804 18.3153 19.2097 18.3757 19.1407 18.4381C19.1284 18.4492 19.1154 18.4595 19.1033 18.4708C19.0339 18.5353 18.9682 18.6034 18.9044 18.6735C18.8931 18.6857 18.8812 18.6971 18.8701 18.7096C18.8125 18.7747 18.7588 18.8429 18.7062 18.9121C18.6904 18.9329 18.6734 18.9524 18.6581 18.9733C18.6178 19.0292 18.5812 19.0877 18.5441 19.1461C18.5197 19.1841 18.4939 19.221 18.471 19.2601C18.4508 19.2949 18.4335 19.3314 18.4145 19.3668C18.1699 19.8204 18.0204 20.3328 18.0019 20.8813C17.9678 21.918 18.3955 22.864 19.104 23.5243C19.1894 23.6033 19.3287 23.5376 19.3241 23.4209C19.32 23.3154 19.3204 23.2099 19.3234 23.1037C19.3398 22.6161 19.4324 22.1492 19.5919 21.7144L19.2892 21.6097C19.2572 21.5982 19.2578 21.554 19.2903 21.544C19.3973 21.5125 19.5694 21.4609 19.7142 21.4135C19.8809 21.0401 20.0995 20.6953 20.3576 20.3859C20.3609 20.3821 20.3638 20.3779 20.3671 20.3741L20.367 20.3741C20.368 20.3729 20.3688 20.3717 20.3697 20.3706L20.11 20.1787C20.0825 20.1587 20.096 20.1146 20.1304 20.1154C20.2465 20.1181 20.4367 20.1209 20.5929 20.1197L20.5942 20.1193C20.8285 19.8807 21.09 19.6678 21.3731 19.4848C21.3914 19.4734 21.409 19.4606 21.4273 19.4495L21.4268 19.4489C21.4281 19.4481 21.4293 19.4472 21.4306 19.4465L21.226 19.2304C21.203 19.2063 21.2235 19.1672 21.2567 19.1726C21.3822 19.1965 21.5925 19.2372 21.7529 19.2633C22.341 18.9593 23.0052 18.7852 23.705 18.7691C23.729 18.7687 23.7528 18.7669 23.777 18.7669C23.7296 19.4203 23.6533 20.1778 23.5331 21.0083C23.5291 21.0351 23.5248 21.0618 23.5208 21.0885C23.4853 21.3293 23.4453 21.5769 23.402 21.8288C23.3577 22.0816 23.3126 22.3343 23.2619 22.5846C23.2624 22.5845 23.2629 22.5845 23.2634 22.5844C23.2632 22.5859 23.2629 22.5874 23.2626 22.5889C23.579 22.5288 23.9054 22.4968 24.2378 22.4968C24.7134 22.4968 25.1721 22.564 25.6096 22.6839C25.6661 22.6999 25.7233 22.7132 25.7792 22.7313C25.7791 22.7309 25.7791 22.7303 25.7791 22.7298C25.7806 22.7303 25.7821 22.7307 25.7836 22.7311C25.7081 21.5954 25.5489 20.2172 25.2278 18.9904C25.1974 18.8727 25.1656 18.7563 25.1321 18.6416C25.1205 18.6022 25.1089 18.5629 25.097 18.5239C25.0443 18.3514 24.9884 18.1824 24.9281 18.0196C25.4801 18.0158 26.0122 18.1259 26.4964 18.3279C26.6366 18.2939 26.8207 18.2438 26.9308 18.2118C26.9373 18.2104 26.9432 18.2114 26.9487 18.2136C26.9507 18.2143 26.9522 18.2157 26.954 18.2169C26.9622 18.2223 26.9679 18.2308 26.9686 18.2405C26.9688 18.2428 26.9683 18.2449 26.968 18.2471C26.9673 18.252 26.9664 18.2571 26.963 18.2618L26.8263 18.4313L26.7987 18.4642C26.799 18.4643 26.7992 18.4645 26.7994 18.4646L26.7966 18.4681C27.081 18.6162 27.3453 18.7965 27.5855 19.0067H27.5876C27.7258 18.9967 27.8939 18.9806 27.998 18.9687C28.0281 18.9666 28.0441 19.0047 28.02 19.0247L27.8208 19.198L27.8068 19.2098C27.807 19.2099 27.8071 19.2099 27.8071 19.2099L27.8038 19.2129C28.0601 19.4712 28.2824 19.7676 28.4606 20.0919C28.5907 20.124 28.7489 20.1581 28.845 20.1781C28.8751 20.184 28.879 20.2242 28.8511 20.2362L28.6017 20.3446L28.5927 20.3483V20.3484L28.5888 20.3502C28.7629 20.7247 28.8771 21.1332 28.9271 21.5656C28.9371 21.6598 28.9451 21.7519 28.9492 21.8459C28.9498 21.8624 28.9578 21.8745 28.9639 21.8879C28.9645 21.8894 28.9647 21.8911 28.9655 21.8926C28.9929 21.9464 29.0545 21.9692 29.1097 21.946C29.1117 21.9451 29.1134 21.9438 29.1154 21.9428C29.1279 21.9367 29.141 21.9334 29.1513 21.922C29.734 21.2853 30.0463 20.4163 29.9423 19.4973C29.8639 18.8132 29.5628 18.2093 29.122 17.7423C29.1196 17.7398 29.1173 17.7374 29.115 17.7349C29.054 17.6708 28.9908 17.6094 28.9248 17.5507C28.9208 17.5472 28.9169 17.5441 28.913 17.5406C28.847 17.4826 28.7791 17.4273 28.7084 17.3751C28.7053 17.3726 28.702 17.3705 28.6988 17.3681C28.0867 16.9191 27.3096 16.6875 26.4923 16.7802C26.1859 16.8162 25.8936 16.8943 25.6232 17.0084C25.403 17.1005 25.1968 17.2167 25.0085 17.3567C24.9791 17.3774 24.9531 17.4032 24.9245 17.4252C24.8606 17.4737 24.7992 17.5229 24.7397 17.574C24.7219 17.5342 24.704 17.4946 24.6842 17.4569C24.9625 17.0483 25.3089 16.7081 25.7013 16.4418C25.7475 16.3095 25.8034 16.1354 25.8375 16.0293C25.8415 16.0153 25.8535 16.0092 25.8656 16.0092C25.8776 16.0092 25.8896 16.0172 25.8936 16.0313L25.9591 16.2296L25.9716 16.2698C25.9717 16.2696 25.9721 16.2696 25.9723 16.2694L25.9737 16.2735C26.0162 16.2494 26.06 16.2277 26.1033 16.2053C26.1522 16.18 26.2019 16.1558 26.2524 16.1323C26.3354 16.094 26.4197 16.0588 26.5049 16.0262C26.5776 15.9987 26.6509 15.9725 26.7261 15.9489C26.759 15.9384 26.7916 15.9267 26.8246 15.9171H26.8265C26.8907 15.799 26.9668 15.6548 27.0128 15.5648C27.0188 15.5547 27.0288 15.5487 27.0389 15.5487C27.0528 15.5487 27.0669 15.5587 27.0689 15.5768L27.1041 15.8296L27.1061 15.8469C27.1062 15.8469 27.1063 15.8469 27.1064 15.8469L27.107 15.8511C27.3592 15.799 27.6176 15.773 27.8759 15.773C27.972 15.773 28.0701 15.777 28.1662 15.785C28.2622 15.6949 28.3704 15.5849 28.4386 15.5167C28.4445 15.5107 28.4525 15.5087 28.4606 15.5087C28.4766 15.5087 28.4926 15.5227 28.4886 15.5428L28.4457 15.8071L28.4452 15.8108L28.4446 15.815C28.8391 15.8731 29.2295 15.9952 29.6059 16.1834Z" fill="#28DAA5"/>
<path d="M25.8195 23.382C25.3288 23.1977 24.7942 23.0977 24.2377 23.0977C23.8552 23.0977 23.4828 23.1457 23.1284 23.2359C21.4605 23.6523 20.1769 24.9898 19.8886 26.6557C19.8565 26.836 20.0227 27.0001 20.235 27.0001H28.2383C28.4524 27.0001 28.6187 26.836 28.5866 26.6557C28.3264 25.1521 27.253 23.9145 25.8195 23.382ZM21.4384 25.5344C21.7247 24.9738 22.2353 24.5453 22.86 24.3551C23.0582 24.2929 23.2684 24.257 23.4867 24.2469C23.4888 24.2469 23.4888 24.2469 23.4908 24.2469C23.669 24.2409 23.777 24.4472 23.6729 24.5893C23.6369 24.6393 23.6008 24.6914 23.5669 24.7435C23.3746 25.0339 23.2184 25.3382 23.1023 25.6526C23.0722 25.7366 22.9962 25.7928 22.908 25.7968L21.6446 25.8508C21.4764 25.8588 21.3623 25.6826 21.4384 25.5344Z" fill="#28DAA5"/>
</g>
<defs>
<clipPath id="clip0_35_440">
<rect width="14" height="14.0001" fill="white" transform="translate(17 13)"/>
</clipPath>
</defs>
</svg>
