<svg width="48" height="48" viewBox="0 0 48 48" fill="none" xmlns="http://www.w3.org/2000/svg">
<path d="M24 4C15.178 4 7.99998 11.178 7.99998 19.99C7.94198 32.88 23.392 43.568 24 44C24 44 40.058 32.88 40 20C40 11.178 32.822 4 24 4ZM24 28C19.58 28 16 24.42 16 20C16 15.58 19.58 12 24 12C28.42 12 32 15.58 32 20C32 24.42 28.42 28 24 28Z" fill="#FAB042"/>
<circle cx="24" cy="20" r="11" fill="#FEFEFE"/>
<g clip-path="url(#clip0_35_467)">
<path d="M21.4761 22.0126V22.0127L21.4731 22.0095L19.11 24.2765C19.11 24.2784 19.11 24.2784 19.11 24.2784C18.7893 24.5991 18.8896 25.2205 19.3345 25.6654C19.6481 25.9791 20.0479 26.1173 20.3697 26.0616C20.3711 26.0613 20.3725 26.0612 20.3739 26.061C20.4152 26.0536 20.4546 26.0425 20.493 26.0285C20.5004 26.0258 20.5075 26.0227 20.5149 26.0198C20.5508 26.0052 20.5854 25.989 20.6177 25.9683C20.6215 25.9658 20.6247 25.9627 20.6284 25.9603C20.6606 25.9386 20.6934 25.9179 20.7214 25.89C20.7214 25.89 20.7214 25.89 20.7235 25.89L22.9223 23.599L21.5134 22.0537L21.4761 22.0126Z" fill="#FAB042"/>
<path d="M30.7454 17.2491C30.5128 17.0868 30.1941 17.1289 29.9937 17.3294L29.8417 17.4815L29.644 17.6712L29.6419 17.6733C29.6414 17.6716 29.6409 17.6699 29.6409 17.668L28.3582 18.9529C28.1658 19.1432 27.857 19.1733 27.6446 19.005C27.3921 18.8045 27.3781 18.4357 27.5986 18.2153L29.3203 16.4916C29.3904 16.3914 29.4265 16.2751 29.4265 16.1568C29.4265 15.9985 29.3623 15.8381 29.2341 15.7239C29.0015 15.5134 28.6388 15.5355 28.4183 15.756L26.7907 17.3855C26.5984 17.5759 26.2897 17.606 26.0772 17.4376C25.8246 17.2372 25.8106 16.8684 26.0311 16.6479L27.6707 15.0063C27.8712 14.8059 27.9132 14.4872 27.7509 14.2546C27.5384 13.9459 27.1075 13.918 26.8569 14.1705L24.9989 16.0285C24.9928 16.0325 24.9909 16.0366 24.9868 16.0425C24.9768 16.0506 24.9689 16.0586 24.9588 16.0666C24.4517 16.5737 24.1972 17.2432 24.1972 17.9126C24.1972 18.1993 24.2452 18.4879 24.3394 18.7625C24.4156 18.985 24.3615 19.2315 24.1951 19.3979L23.8845 19.6973L23.8634 19.7173L23.8636 19.7175L23.8604 19.7206L25.3456 21.0736L25.6021 20.8049C25.7665 20.6386 26.013 20.5825 26.2335 20.6586C26.2837 20.6759 26.3356 20.6856 26.3866 20.6997C26.415 20.7077 26.4435 20.7159 26.4723 20.7228C26.6654 20.7694 26.8618 20.7937 27.0597 20.796C27.0698 20.7961 27.0799 20.7971 27.09 20.7971H27.0901C27.1041 20.7971 27.1177 20.7954 27.1317 20.7952C27.3565 20.7916 27.5796 20.7596 27.7976 20.6987C27.8266 20.6904 27.8555 20.6824 27.8841 20.6732C27.9511 20.6521 28.0172 20.6289 28.0826 20.6021C28.0945 20.5973 28.1059 20.5914 28.1176 20.5863C28.2604 20.5253 28.3981 20.4509 28.5302 20.3633C28.5342 20.3607 28.5383 20.3583 28.5422 20.3557C28.6108 20.3096 28.6771 20.2598 28.7421 20.2065C28.7483 20.2014 28.7544 20.1958 28.7605 20.1905C28.8188 20.1418 28.8788 20.0959 28.9335 20.0412C28.9415 20.0331 28.9494 20.0231 28.9574 20.0151C28.9635 20.0091 28.9674 20.0071 28.9715 20.0011L30.8296 18.1451C31.0821 17.8926 31.054 17.4616 30.7454 17.2491Z" fill="#FAB042"/>
<path d="M22.2319 19.3221C22.1961 19.2862 22.1673 19.2462 22.1422 19.2052C22.5353 18.2482 22.2533 16.9958 21.3487 16.0911C20.205 14.9476 18.3129 14.9855 17.549 15.7494C16.7851 16.5134 16.7471 18.4055 17.8907 19.5491C18.7954 20.4537 20.0478 20.7357 21.0048 20.3426C21.0458 20.3677 21.0858 20.3965 21.1216 20.4323L26.0977 25.8934L26.0991 25.8921C26.1579 25.9509 26.2295 25.9908 26.3059 26.0214C26.3118 26.0239 26.3179 26.0264 26.324 26.0287C26.3626 26.0429 26.402 26.0539 26.4437 26.0614C26.4445 26.0615 26.4454 26.0616 26.4462 26.0617C26.7643 26.1171 27.1596 25.981 27.4701 25.6706C27.9103 25.2304 28.0099 24.6149 27.693 24.2981L22.2319 19.3221Z" fill="#FAB042"/>
</g>
<defs>
<clipPath id="clip0_35_467">
<rect width="14" height="14" fill="white" transform="translate(17 13)"/>
</clipPath>
</defs>
</svg>
