<svg width="48" height="48" viewBox="0 0 48 48" fill="none" xmlns="http://www.w3.org/2000/svg">
<path d="M24 4C15.178 4 7.99998 11.178 7.99998 19.99C7.94198 32.88 23.392 43.568 24 44C24 44 40.058 32.88 40 20C40 11.178 32.822 4 24 4ZM24 28C19.58 28 16 24.42 16 20C16 15.58 19.58 12 24 12C28.42 12 32 15.58 32 20C32 24.42 28.42 28 24 28Z" fill="#FA516F"/>
<circle cx="24" cy="20" r="11" fill="#FEFEFE"/>
<path d="M29.9413 18.3934V14.5221C29.9413 14.3246 29.7816 14.1667 29.5847 14.1667H18.4131C18.2184 14.1667 18.0587 14.3246 18.0587 14.5221V18.3934C17.4112 18.9374 17 19.7555 17 20.6702V21.2646V21.8194V25.6514C17 25.7522 17.0809 25.8334 17.1793 25.8334H18.5706C18.669 25.8334 18.75 25.7522 18.75 25.6514V23.9515C18.75 23.8527 18.8308 23.7717 18.9293 23.7717H29.0706C29.1691 23.7717 29.25 23.8528 29.25 23.9515V25.6514C29.25 25.7522 29.3309 25.8334 29.4293 25.8334H30.8206C30.9191 25.8334 31 25.7522 31 25.6514V21.8194V21.2646V20.6702C31.0001 19.7555 30.5887 18.9374 29.9413 18.3934ZM18.121 19.6839C18.4728 19.023 19.1672 18.5733 19.9663 18.5733H28.0338C28.8311 18.5733 29.5262 19.0228 29.8785 19.6837C30.0482 20.0018 29.82 20.3872 29.4603 20.3872H18.5395C18.1799 20.3872 17.9517 20.0019 18.121 19.6839ZM28.1432 17.4766C28.1257 17.5292 28.0775 17.5665 28.0228 17.5731C26.6884 17.72 25.9775 17.72 24.6431 17.5731C24.5885 17.5665 24.5403 17.5292 24.525 17.4766C24.2779 16.7549 24.2779 16.3558 24.525 15.6319C24.5403 15.5814 24.5885 15.5442 24.6431 15.5376C25.9775 15.3907 26.6884 15.3907 28.0228 15.5376C28.0775 15.5441 28.1257 15.5814 28.1432 15.6319C28.3882 16.3558 28.3882 16.7549 28.1432 17.4766ZM23.475 17.4766C23.4575 17.5292 23.4116 17.5665 23.3569 17.5731C22.0225 17.72 21.3116 17.72 19.9772 17.5731C19.9225 17.5665 19.8743 17.5292 19.8569 17.4766C19.6119 16.7549 19.6119 16.3558 19.8569 15.6319C19.8743 15.5814 19.9225 15.5442 19.9772 15.5376C21.3116 15.3907 22.0225 15.3907 23.3569 15.5376C23.4116 15.5441 23.4575 15.5814 23.475 15.6319C23.7222 16.3558 23.7222 16.7549 23.475 17.4766Z" fill="#FA516F"/>
</svg>
