<svg width="24" height="24" viewBox="0 0 24 24" fill="none" xmlns="http://www.w3.org/2000/svg">
<path d="M22.6667 11.1867C22.9145 11.0021 23.0982 10.7446 23.1923 10.4503C23.2863 10.156 23.2859 9.83961 23.1911 9.54556C23.0962 9.2515 22.9118 8.9945 22.6635 8.81058C22.4152 8.62667 22.1156 8.52506 21.8067 8.52002L15.8067 8.29335C15.7772 8.29131 15.7489 8.28079 15.7252 8.26305C15.7016 8.24531 15.6836 8.2211 15.6734 8.19335L13.6 2.59335C13.4958 2.30844 13.3066 2.06243 13.058 1.88861C12.8094 1.7148 12.5134 1.62158 12.21 1.62158C11.9067 1.62158 11.6106 1.7148 11.362 1.88861C11.1134 2.06243 10.9242 2.30844 10.82 2.59335L8.75335 8.21335C8.74313 8.2411 8.72511 8.26531 8.70146 8.28305C8.6778 8.30079 8.64952 8.31131 8.62002 8.31335L2.62002 8.54002C2.31109 8.54506 2.01148 8.64667 1.76321 8.83058C1.51494 9.0145 1.33046 9.2715 1.23562 9.56556C1.14079 9.85962 1.14036 10.176 1.23441 10.4703C1.32845 10.7646 1.51224 11.0221 1.76002 11.2067L6.46668 14.9067C6.49024 14.9252 6.50784 14.9503 6.51732 14.9787C6.5268 15.0071 6.52774 15.0377 6.52002 15.0667L4.90002 20.8067C4.81607 21.099 4.8242 21.41 4.92331 21.6975C5.02242 21.9851 5.20769 22.2351 5.45392 22.4135C5.70014 22.592 5.99538 22.6903 6.29945 22.695C6.60353 22.6998 6.90168 22.6107 7.15335 22.44L12.1267 19.1067C12.1512 19.0898 12.1802 19.0807 12.21 19.0807C12.2398 19.0807 12.2689 19.0898 12.2934 19.1067L17.2667 22.44C17.515 22.6166 17.812 22.7114 18.1167 22.7114C18.4213 22.7114 18.7184 22.6166 18.9667 22.44C19.213 22.2632 19.3984 22.0144 19.4975 21.7279C19.5966 21.4414 19.6045 21.1312 19.52 20.84L17.8867 15.08C17.878 15.0511 17.8785 15.0202 17.8881 14.9916C17.8976 14.9629 17.9157 14.938 17.94 14.92L22.6667 11.1867Z" fill="#FAB042"/>
</svg>
